<svg version="1.1" xmlns="http://www.w3.org/2000/svg" xmlns:xlink="http://www.w3.org/1999/xlink" width="77.31843" height="92.12075" viewBox="0,0,77.31843,92.12075"><g transform="translate(-121.34079,-44.56463)"><g stroke-miterlimit="10"><path d="M187.03908,45.2117c0,0 1.01332,-1.0041 1.94514,-0.51067c0.85865,0.45467 0.77881,1.70921 0.77881,1.70921v27.56636l3.26874,20.702l-25.49616,13.29287c0,0 -3.75894,1.39929 -7.51846,1.35797c-3.67514,-0.04039 -7.29981,-1.46693 -7.29981,-1.46693l-25.82303,-13.07495l2.83291,-20.70201v-27.23949c0,0 -0.08567,-1.48798 0.81981,-1.97154c0.90735,-0.48456 1.79518,0.33717 1.79518,0.33717l16.01682,13.07495h22.99013l15.68994,-13.07495z" fill="#a3dbf4" stroke="none" stroke-width="0" stroke-linecap="round" stroke-linejoin="miter"/><path d="M155.44762,91.51072c0.00076,-0.96747 8.89383,-0.99913 8.91568,0c0.02374,1.77321 -3.50889,5.00675 -4.45784,4.98431c-0.98269,-0.02323 -4.45919,-3.27041 -4.45784,-4.98431z" fill="#54a7dd" stroke="none" stroke-width="0" stroke-linecap="butt" stroke-linejoin="miter"/><path d="M133.75287,53.09371l9.99838,8.82704l-9.98767,6.55105z" fill="#54a7dd" stroke="#316da9" stroke-width="0" stroke-linecap="butt" stroke-linejoin="miter"/><path d="M185.96276,68.58291l-9.98767,-6.55106l9.99838,-8.82704z" fill="#54a7dd" stroke="#316da9" stroke-width="0" stroke-linecap="butt" stroke-linejoin="miter"/><path d="M121.67756,86.19593l11.53007,3.22557" fill="none" stroke="#54a7dd" stroke-width="2.5" stroke-linecap="butt" stroke-linejoin="miter"/><path d="M123.66799,103.45131l10.54921,-7.07468" fill="none" stroke="#54a7dd" stroke-width="2.5" stroke-linecap="butt" stroke-linejoin="miter"/><path d="M198.32247,86.1433l-11.53007,3.22557" fill="none" stroke="#54a7dd" stroke-width="2.5" stroke-linecap="butt" stroke-linejoin="miter"/><path d="M196.33204,103.39868l-10.54922,-7.07468" fill="none" stroke="#54a7dd" stroke-width="2.5" stroke-linecap="butt" stroke-linejoin="miter"/><path d="M180.89007,105.65761c0,0 -8.8595,7.42763 -21.05611,7.36089c-13.34133,-0.073 -21.055,-7.52755 -21.055,-7.52755" fill="none" stroke="#54a7dd" stroke-width="2.5" stroke-linecap="butt" stroke-linejoin="miter"/><g fill="none" stroke="#316da9" stroke-width="2.5" stroke-linecap="round" stroke-linejoin="round"><path d="M156.16784,135.43539l7.70864,-17.99121"/><path d="M151.3283,132.74233l-9.97058,-6.11355l9.72134,-5.96073"/><path d="M169.34225,120.66805l9.72134,5.96073l-9.97058,6.11355"/></g></g></g></svg>